<mxfile host="app.diagrams.net" modified="2023-11-19T01:58:46.095Z" agent="Mozilla/5.0 (Macintosh; Intel Mac OS X 10_15_7) AppleWebKit/537.36 (KHTML, like Gecko) Chrome/119.0.0.0 Safari/537.36" etag="wvPPnSV7zZANh8cnmgGg" version="22.1.3" type="device">
  <diagram name="Page-1" id="j9-VOFZOFxkPh4TiHVFl">
    <mxGraphModel dx="1131" dy="985" grid="1" gridSize="10" guides="1" tooltips="1" connect="1" arrows="1" fold="1" page="1" pageScale="1" pageWidth="850" pageHeight="1100" math="0" shadow="0">
      <root>
        <mxCell id="0" />
        <mxCell id="1" parent="0" />
        <mxCell id="Z3RAVkEcWyjuXDu8gjnI-8" style="rounded=0;orthogonalLoop=1;jettySize=auto;html=1;exitX=1;exitY=0.3333333333333333;exitDx=0;exitDy=0;exitPerimeter=0;entryX=0;entryY=0.5;entryDx=0;entryDy=0;" edge="1" parent="1" source="Z3RAVkEcWyjuXDu8gjnI-1" target="Z3RAVkEcWyjuXDu8gjnI-6">
          <mxGeometry relative="1" as="geometry" />
        </mxCell>
        <mxCell id="Z3RAVkEcWyjuXDu8gjnI-9" value="Open Application" style="edgeLabel;html=1;align=center;verticalAlign=middle;resizable=0;points=[];" vertex="1" connectable="0" parent="Z3RAVkEcWyjuXDu8gjnI-8">
          <mxGeometry x="0.0031" y="6" relative="1" as="geometry">
            <mxPoint x="-4" y="12" as="offset" />
          </mxGeometry>
        </mxCell>
        <mxCell id="Z3RAVkEcWyjuXDu8gjnI-11" style="rounded=0;orthogonalLoop=1;jettySize=auto;html=1;exitX=1;exitY=0.3333333333333333;exitDx=0;exitDy=0;exitPerimeter=0;entryX=0;entryY=0;entryDx=0;entryDy=0;" edge="1" parent="1" source="Z3RAVkEcWyjuXDu8gjnI-1" target="Z3RAVkEcWyjuXDu8gjnI-10">
          <mxGeometry relative="1" as="geometry" />
        </mxCell>
        <mxCell id="Z3RAVkEcWyjuXDu8gjnI-12" value="Select &quot;Sign Up&quot;" style="edgeLabel;html=1;align=center;verticalAlign=middle;resizable=0;points=[];" vertex="1" connectable="0" parent="Z3RAVkEcWyjuXDu8gjnI-11">
          <mxGeometry x="-0.0482" y="4" relative="1" as="geometry">
            <mxPoint as="offset" />
          </mxGeometry>
        </mxCell>
        <mxCell id="Z3RAVkEcWyjuXDu8gjnI-13" style="rounded=0;orthogonalLoop=1;jettySize=auto;html=1;exitX=1;exitY=0.3333333333333333;exitDx=0;exitDy=0;exitPerimeter=0;entryX=0;entryY=0.5;entryDx=0;entryDy=0;" edge="1" parent="1" source="Z3RAVkEcWyjuXDu8gjnI-1" target="Z3RAVkEcWyjuXDu8gjnI-10">
          <mxGeometry relative="1" as="geometry" />
        </mxCell>
        <mxCell id="Z3RAVkEcWyjuXDu8gjnI-14" value="provides required info" style="edgeLabel;html=1;align=center;verticalAlign=middle;resizable=0;points=[];" vertex="1" connectable="0" parent="Z3RAVkEcWyjuXDu8gjnI-13">
          <mxGeometry x="0.0977" y="-2" relative="1" as="geometry">
            <mxPoint as="offset" />
          </mxGeometry>
        </mxCell>
        <mxCell id="Z3RAVkEcWyjuXDu8gjnI-1" value="New User" style="shape=umlActor;verticalLabelPosition=bottom;verticalAlign=top;html=1;outlineConnect=0;movable=1;resizable=1;rotatable=1;deletable=1;editable=1;locked=0;connectable=1;" vertex="1" parent="1">
          <mxGeometry x="263" y="370" width="50" height="110" as="geometry" />
        </mxCell>
        <mxCell id="Z3RAVkEcWyjuXDu8gjnI-6" value="Application is opened" style="ellipse;whiteSpace=wrap;html=1;" vertex="1" parent="1">
          <mxGeometry x="468" y="260" width="120" height="80" as="geometry" />
        </mxCell>
        <mxCell id="Z3RAVkEcWyjuXDu8gjnI-20" style="edgeStyle=orthogonalEdgeStyle;rounded=0;orthogonalLoop=1;jettySize=auto;html=1;exitX=0.5;exitY=1;exitDx=0;exitDy=0;" edge="1" parent="1" source="Z3RAVkEcWyjuXDu8gjnI-10" target="Z3RAVkEcWyjuXDu8gjnI-19">
          <mxGeometry relative="1" as="geometry" />
        </mxCell>
        <mxCell id="Z3RAVkEcWyjuXDu8gjnI-21" value="New user created" style="edgeLabel;html=1;align=center;verticalAlign=middle;resizable=0;points=[];" vertex="1" connectable="0" parent="Z3RAVkEcWyjuXDu8gjnI-20">
          <mxGeometry x="0.0038" y="2" relative="1" as="geometry">
            <mxPoint as="offset" />
          </mxGeometry>
        </mxCell>
        <mxCell id="Z3RAVkEcWyjuXDu8gjnI-10" value="User Signs up" style="ellipse;whiteSpace=wrap;html=1;" vertex="1" parent="1">
          <mxGeometry x="468" y="385" width="120" height="80" as="geometry" />
        </mxCell>
        <mxCell id="Z3RAVkEcWyjuXDu8gjnI-16" style="rounded=0;orthogonalLoop=1;jettySize=auto;html=1;exitX=0;exitY=1;exitDx=0;exitDy=0;entryX=1;entryY=0.3333333333333333;entryDx=0;entryDy=0;entryPerimeter=0;" edge="1" parent="1" source="Z3RAVkEcWyjuXDu8gjnI-10" target="Z3RAVkEcWyjuXDu8gjnI-1">
          <mxGeometry relative="1" as="geometry">
            <Array as="points">
              <mxPoint x="363" y="450" />
            </Array>
          </mxGeometry>
        </mxCell>
        <mxCell id="Z3RAVkEcWyjuXDu8gjnI-17" value="Conformation" style="edgeLabel;html=1;align=center;verticalAlign=middle;resizable=0;points=[];" vertex="1" connectable="0" parent="Z3RAVkEcWyjuXDu8gjnI-16">
          <mxGeometry x="-0.3422" y="1" relative="1" as="geometry">
            <mxPoint x="-10" as="offset" />
          </mxGeometry>
        </mxCell>
        <mxCell id="Z3RAVkEcWyjuXDu8gjnI-18" value="D1" style="html=1;dashed=0;whiteSpace=wrap;shape=mxgraph.dfd.dataStoreID;align=left;spacingLeft=3;points=[[0,0],[0.5,0],[1,0],[0,0.5],[1,0.5],[0,1],[0.5,1],[1,1]];" vertex="1" parent="1">
          <mxGeometry x="368" y="520" width="100" height="30" as="geometry" />
        </mxCell>
        <mxCell id="Z3RAVkEcWyjuXDu8gjnI-19" value="Users" style="text;html=1;align=center;verticalAlign=middle;resizable=0;points=[];autosize=1;strokeColor=none;fillColor=none;" vertex="1" parent="1">
          <mxGeometry x="403" y="520" width="50" height="30" as="geometry" />
        </mxCell>
      </root>
    </mxGraphModel>
  </diagram>
</mxfile>
